<svg width="203" height="24" viewBox="0 0 203 24" fill="none" xmlns="http://www.w3.org/2000/svg">
<path d="M7.072 23V4.824L8.704 6.456H0.512V0.599998H21.056V6.456H12.864L14.496 4.824V23H7.072ZM20.5335 23L30.3255 0.599998H37.7495L47.5415 23H39.7335L32.5015 4.184H35.4455L28.2135 23H20.5335ZM26.3575 19.096L28.2775 13.656H38.5815L40.5015 19.096H26.3575ZM49.609 23V0.599998H71.273V23H63.849V4.856L65.481 6.456H55.401L57.033 4.856V23H49.609ZM88.994 23L83.426 12.504L89.442 8.984L97.506 23H88.994ZM75.042 23V0.599998H82.594V23H75.042ZM80.418 14.904V8.952H88.898V14.904H80.418ZM90.178 12.6L83.234 11.896L89.666 0.599998H97.538L90.178 12.6ZM99.0465 23V0.599998H106.47V12.248L114.183 0.599998H121.287V23H113.863V11.384L106.183 23H99.0465Z" fill="black"/>
<path d="M140.363 23.512C138.614 23.512 137.035 23.2347 135.627 22.68C134.219 22.104 133.046 21.272 132.107 20.184L136.171 15.384C136.768 16.1093 137.355 16.664 137.931 17.048C138.507 17.4107 139.104 17.592 139.723 17.592C141.344 17.592 142.155 16.664 142.155 14.808V6.296H134.539V0.599998H149.611V14.36C149.611 17.432 148.822 19.7253 147.243 21.24C145.664 22.7547 143.371 23.512 140.363 23.512ZM164.818 23.512C163.005 23.512 161.319 23.224 159.762 22.648C158.226 22.072 156.893 21.2613 155.762 20.216C154.631 19.1493 153.746 17.9013 153.106 16.472C152.487 15.0427 152.178 13.4853 152.178 11.8C152.178 10.0933 152.487 8.536 153.106 7.128C153.746 5.69867 154.631 4.46133 155.762 3.416C156.893 2.34933 158.226 1.528 159.762 0.952C161.319 0.375999 163.005 0.0879993 164.818 0.0879993C166.653 0.0879993 168.338 0.375999 169.874 0.952C171.41 1.528 172.743 2.34933 173.874 3.416C175.005 4.46133 175.879 5.69867 176.498 7.128C177.138 8.536 177.458 10.0933 177.458 11.8C177.458 13.4853 177.138 15.0427 176.498 16.472C175.879 17.9013 175.005 19.1493 173.874 20.216C172.743 21.2613 171.41 22.072 169.874 22.648C168.338 23.224 166.653 23.512 164.818 23.512ZM164.818 17.4C165.522 17.4 166.173 17.272 166.77 17.016C167.389 16.76 167.922 16.3973 168.37 15.928C168.839 15.4373 169.202 14.8507 169.458 14.168C169.714 13.464 169.842 12.6747 169.842 11.8C169.842 10.9253 169.714 10.1467 169.458 9.464C169.202 8.76 168.839 8.17333 168.37 7.704C167.922 7.21333 167.389 6.84 166.77 6.584C166.173 6.328 165.522 6.2 164.818 6.2C164.114 6.2 163.453 6.328 162.834 6.584C162.237 6.84 161.703 7.21333 161.234 7.704C160.786 8.17333 160.434 8.76 160.178 9.464C159.922 10.1467 159.794 10.9253 159.794 11.8C159.794 12.6747 159.922 13.464 160.178 14.168C160.434 14.8507 160.786 15.4373 161.234 15.928C161.703 16.3973 162.237 16.76 162.834 17.016C163.453 17.272 164.114 17.4 164.818 17.4ZM180.199 23V0.599998H192.167C195.26 0.599998 197.543 1.15467 199.015 2.264C200.487 3.352 201.223 4.74933 201.223 6.456C201.223 7.58667 200.903 8.6 200.263 9.496C199.644 10.3707 198.738 11.064 197.543 11.576C196.348 12.088 194.876 12.344 193.127 12.344L193.767 10.616C195.516 10.616 197.02 10.8613 198.279 11.352C199.559 11.8427 200.54 12.5573 201.223 13.496C201.927 14.4133 202.279 15.5227 202.279 16.824C202.279 18.7653 201.468 20.28 199.847 21.368C198.247 22.456 195.9 23 192.807 23H180.199ZM187.623 17.72H192.167C192.999 17.72 193.618 17.5707 194.023 17.272C194.45 16.9733 194.663 16.536 194.663 15.96C194.663 15.384 194.45 14.9467 194.023 14.648C193.618 14.3493 192.999 14.2 192.167 14.2H187.111V9.208H191.143C191.996 9.208 192.615 9.06933 192.999 8.792C193.404 8.49333 193.607 8.07733 193.607 7.544C193.607 6.98933 193.404 6.57333 192.999 6.296C192.615 6.01867 191.996 5.88 191.143 5.88H187.623V17.72Z" fill="#0070FB"/>
</svg>
